<mxfile host="app.diagrams.net" modified="2023-08-29T11:24:46.805Z" agent="Mozilla/5.0 (Windows NT 10.0; Win64; x64) AppleWebKit/537.36 (KHTML, like Gecko) Chrome/116.0.0.0 Safari/537.36" etag="W6kF2XfHrCC9Y2DSpJQE" version="21.6.9" type="device">
  <diagram name="PÃ¡gina-1" id="YXbWpebmWmldUPd0kknM">
    <mxGraphModel dx="1050" dy="574" grid="1" gridSize="10" guides="1" tooltips="1" connect="1" arrows="1" fold="1" page="1" pageScale="1" pageWidth="827" pageHeight="1169" math="0" shadow="0">
      <root>
        <mxCell id="0" />
        <mxCell id="1" parent="0" />
        <mxCell id="NIwfqgxCusSFsJfZpUKv-1" value="Tartaruga Marinha" style="swimlane;fontStyle=1;align=center;verticalAlign=top;childLayout=stackLayout;horizontal=1;startSize=26;horizontalStack=0;resizeParent=1;resizeParentMax=0;resizeLast=0;collapsible=1;marginBottom=0;whiteSpace=wrap;html=1;" vertex="1" parent="1">
          <mxGeometry x="230" y="390" width="160" height="254" as="geometry" />
        </mxCell>
        <mxCell id="NIwfqgxCusSFsJfZpUKv-2" value="+ Especie : string&lt;br&gt;+ Idade : string&lt;br&gt;+ Peso : string&lt;br&gt;+ Conprimento : string&lt;br&gt;+ Largura : string" style="text;strokeColor=none;fillColor=none;align=left;verticalAlign=top;spacingLeft=4;spacingRight=4;overflow=hidden;rotatable=0;points=[[0,0.5],[1,0.5]];portConstraint=eastwest;whiteSpace=wrap;html=1;" vertex="1" parent="NIwfqgxCusSFsJfZpUKv-1">
          <mxGeometry y="26" width="160" height="84" as="geometry" />
        </mxCell>
        <mxCell id="NIwfqgxCusSFsJfZpUKv-3" value="" style="line;strokeWidth=1;fillColor=none;align=left;verticalAlign=middle;spacingTop=-1;spacingLeft=3;spacingRight=3;rotatable=0;labelPosition=right;points=[];portConstraint=eastwest;strokeColor=inherit;" vertex="1" parent="NIwfqgxCusSFsJfZpUKv-1">
          <mxGeometry y="110" width="160" height="84" as="geometry" />
        </mxCell>
        <mxCell id="NIwfqgxCusSFsJfZpUKv-12" value="+ Nadar(): void&lt;br&gt;+Comer(): void&lt;br&gt;+Respirar(): void" style="text;html=1;align=center;verticalAlign=middle;resizable=0;points=[];autosize=1;strokeColor=none;fillColor=none;" vertex="1" parent="NIwfqgxCusSFsJfZpUKv-1">
          <mxGeometry y="194" width="160" height="60" as="geometry" />
        </mxCell>
      </root>
    </mxGraphModel>
  </diagram>
</mxfile>
